<svg width="54" height="54" viewBox="0 0 54 54" fill="none" xmlns="http://www.w3.org/2000/svg">
<path d="M10.1719 6.62572C3.06177 8.53753 -1.15374 15.8538 0.758068 22.9639L6.29754 43.5655C8.20935 50.6756 15.5256 54.8911 22.6357 52.9793L43.2373 47.4398C50.3474 45.528 54.5629 38.2118 52.6511 31.1017L47.1116 10.5001C45.1998 3.38995 37.8836 -0.825559 30.7735 1.08625L10.1719 6.62572ZM37.3087 4.85178C38.7303 4.46956 40.1942 5.31303 40.5764 6.73454C40.9586 8.15605 40.1151 9.61995 38.6936 10.0022C37.2721 10.3844 35.8082 9.54092 35.426 8.11941C35.0438 6.6979 35.8872 5.234 37.3087 4.85178ZM23.2424 14.1568C30.3525 12.245 37.6688 16.4605 39.5806 23.5706C41.4924 30.6807 37.2769 37.997 30.1668 39.9088C23.0566 41.8206 15.7404 37.6051 13.8286 30.4949C11.9168 23.3848 16.1323 16.0686 23.2424 14.1568ZM24.6273 19.3072C22.5783 19.8581 20.8322 21.2004 19.7729 23.0388C18.7136 24.8772 18.4281 27.0611 18.979 29.1101C19.5299 31.159 20.8722 32.9052 22.7106 33.9645C24.549 35.0237 26.7329 35.3093 28.7819 34.7584C30.8308 34.2074 32.577 32.8651 33.6363 31.0267C34.6955 29.1883 34.9811 27.0044 34.4302 24.9555C33.8792 22.9065 32.5369 21.1603 30.6985 20.1011C28.8601 19.0418 26.6762 18.7562 24.6273 19.3072Z" fill="white"/>
</svg>
