<svg width="32" height="38" viewBox="0 0 32 38" fill="none" xmlns="http://www.w3.org/2000/svg">
<g filter="url(#filter0_d_396_757)">
<mask id="mask0_396_757" style="mask-type:alpha" maskUnits="userSpaceOnUse" x="0" y="0" width="32" height="32">
<rect width="32" height="32" fill="#D9D9D9"/>
</mask>
<g mask="url(#mask0_396_757)">
<path d="M16.0017 15.6667C16.6441 15.6667 17.1931 15.4379 17.6487 14.9804C18.1043 14.5229 18.332 13.9729 18.332 13.3304C18.332 12.6879 18.1033 12.1389 17.6457 11.6834C17.1882 11.2278 16.6382 11 15.9957 11C15.3533 11 14.8043 11.2288 14.3487 11.6863C13.8931 12.1438 13.6654 12.6938 13.6654 13.3363C13.6654 13.9788 13.8941 14.5278 14.3517 14.9834C14.8092 15.4389 15.3592 15.6667 16.0017 15.6667ZM15.9987 29.3334C12.4209 26.2889 9.7487 23.4611 7.98203 20.85C6.21536 18.2389 5.33203 15.8222 5.33203 13.6C5.33203 10.2667 6.40425 7.61113 8.5487 5.63335C10.6931 3.65558 13.1765 2.66669 15.9987 2.66669C18.8209 2.66669 21.3043 3.65558 23.4487 5.63335C25.5931 7.61113 26.6654 10.2667 26.6654 13.6C26.6654 15.8222 25.782 18.2389 24.0154 20.85C22.2487 23.4611 19.5765 26.2889 15.9987 29.3334Z" fill="white"/>
</g>
</g>
<defs>
<filter id="filter0_d_396_757" x="1.33203" y="2.66669" width="29.334" height="34.6667" filterUnits="userSpaceOnUse" color-interpolation-filters="sRGB">
<feFlood flood-opacity="0" result="BackgroundImageFix"/>
<feColorMatrix in="SourceAlpha" type="matrix" values="0 0 0 0 0 0 0 0 0 0 0 0 0 0 0 0 0 0 127 0" result="hardAlpha"/>
<feOffset dy="4"/>
<feGaussianBlur stdDeviation="2"/>
<feComposite in2="hardAlpha" operator="out"/>
<feColorMatrix type="matrix" values="0 0 0 0 0 0 0 0 0 0 0 0 0 0 0 0 0 0 0.25 0"/>
<feBlend mode="normal" in2="BackgroundImageFix" result="effect1_dropShadow_396_757"/>
<feBlend mode="normal" in="SourceGraphic" in2="effect1_dropShadow_396_757" result="shape"/>
</filter>
</defs>
</svg>
